<svg width="1440" height="1024" viewBox="0 0 1440 1024" fill="none" xmlns="http://www.w3.org/2000/svg">
<path d="M186.502 941.177L191.132 908.595L217.034 928.896L186.502 941.177Z" stroke="white" stroke-opacity="0.5" stroke-width="5"/>
<path d="M1233.5 950.177L1238.13 917.595L1264.03 937.896L1233.5 950.177Z" stroke="white" stroke-opacity="0.5" stroke-width="5"/>
<path d="M1360.76 766.969L1370.44 746.471L1383.35 765.104L1360.76 766.969Z" stroke="white" stroke-opacity="0.5" stroke-width="5"/>
<path d="M621.878 938.5L633.268 858.346L696.988 908.287L621.878 938.5Z" stroke="white" stroke-opacity="0.5" stroke-width="3"/>
<path d="M930.173 947.324L951.761 922.486L962.478 953.601L930.173 947.324Z" stroke="white" stroke-opacity="0.5" stroke-width="5"/>
<circle cx="96.5" cy="886.5" r="47" stroke="white" stroke-opacity="0.5"/>
<circle cx="1348.5" cy="867.5" r="17" stroke="white" stroke-opacity="0.5" stroke-width="3"/>
<line x1="77.5" y1="749" x2="77.5" y2="783" stroke="white" stroke-opacity="0.5" stroke-width="7"/>
<line x1="97" y1="765.5" x2="59" y2="765.5" stroke="white" stroke-opacity="0.5" stroke-width="7"/>
<line x1="1275.5" y1="805" x2="1275.5" y2="839" stroke="white" stroke-opacity="0.5" stroke-width="7"/>
<line x1="1295" y1="821.5" x2="1257" y2="821.5" stroke="white" stroke-opacity="0.5" stroke-width="7"/>
<line x1="894.5" y1="606" x2="894.5" y2="626" stroke="white" stroke-opacity="0.5" stroke-width="3"/>
<line x1="906" y1="615.5" x2="883" y2="615.5" stroke="white" stroke-opacity="0.5" stroke-width="3"/>
<line x1="152.413" y1="750.459" x2="140.132" y2="746.196" stroke="white" stroke-opacity="0.5"/>
<line x1="144.14" y1="754.468" x2="148.076" y2="743.132" stroke="white" stroke-opacity="0.5"/>
<line x1="242.413" y1="605.459" x2="230.132" y2="601.196" stroke="white" stroke-opacity="0.5"/>
<line x1="234.14" y1="609.468" x2="238.076" y2="598.132" stroke="white" stroke-opacity="0.5"/>
<line x1="509.413" y1="978.459" x2="497.132" y2="974.196" stroke="white" stroke-opacity="0.5"/>
<line x1="501.14" y1="982.468" x2="505.076" y2="971.132" stroke="white" stroke-opacity="0.5"/>
<line x1="871.413" y1="577.459" x2="859.132" y2="573.196" stroke="white" stroke-opacity="0.5"/>
<line x1="863.14" y1="581.468" x2="867.076" y2="570.132" stroke="white" stroke-opacity="0.5"/>
<line x1="467.413" y1="527.459" x2="455.132" y2="523.196" stroke="white" stroke-opacity="0.5"/>
<line x1="459.14" y1="531.468" x2="463.076" y2="520.132" stroke="white" stroke-opacity="0.5"/>
<line x1="1026.41" y1="566.459" x2="1014.13" y2="562.196" stroke="white" stroke-opacity="0.5"/>
<line x1="1018.14" y1="570.468" x2="1022.08" y2="559.132" stroke="white" stroke-opacity="0.5"/>
<line x1="1309.41" y1="736.459" x2="1297.13" y2="732.196" stroke="white" stroke-opacity="0.5"/>
<line x1="1301.14" y1="740.468" x2="1305.08" y2="729.132" stroke="white" stroke-opacity="0.5"/>
<circle cx="149.5" cy="843.5" r="3.5" fill="#D9D9D9" fill-opacity="0.5"/>
<circle cx="271.5" cy="969.5" r="3.5" fill="#D9D9D9" fill-opacity="0.5"/>
<circle cx="409.5" cy="972.5" r="3.5" fill="#D9D9D9" fill-opacity="0.5"/>
<circle cx="634.5" cy="793.5" r="3.5" fill="#D9D9D9" fill-opacity="0.5"/>
<circle cx="774.5" cy="953.5" r="3.5" fill="#D9D9D9" fill-opacity="0.5"/>
<circle cx="935" cy="869" r="2" fill="#D9D9D9" fill-opacity="0.5"/>
<circle cx="1082" cy="959" r="2" fill="#D9D9D9" fill-opacity="0.5"/>
<circle cx="1174" cy="917" r="2" fill="#D9D9D9" fill-opacity="0.5"/>
<circle cx="1212" cy="978" r="2" fill="#D9D9D9" fill-opacity="0.5"/>
<circle cx="1339" cy="943" r="2" fill="#D9D9D9" fill-opacity="0.5"/>
<circle cx="1389" cy="964" r="2" fill="#D9D9D9" fill-opacity="0.5"/>
<circle cx="421" cy="884" r="2" fill="#D9D9D9" fill-opacity="0.5"/>
<circle cx="99" cy="646" r="2" fill="#D9D9D9" fill-opacity="0.5"/>
<circle cx="51" cy="689" r="2" fill="#D9D9D9" fill-opacity="0.5"/>
<circle cx="200" cy="650" r="2" fill="#D9D9D9" fill-opacity="0.5"/>
<circle cx="1416" cy="835" r="2" fill="#D9D9D9" fill-opacity="0.5"/>
</svg>
