<svg width="1440" height="1024" viewBox="0 0 1440 1024" fill="none" xmlns="http://www.w3.org/2000/svg">
<g clip-path="url(#clip0_1_195)">
<g opacity="0.1">
<path d="M491.526 -55.7589C488.917 33.4764 448.521 106.394 393.807 153.032C339.094 199.67 270.937 222.699 201.685 238.617C132.433 254.534 61.0147 263.971 -6.09093 286.075C-80.2132 310.504 -151.916 350.66 -234.696 335.932C-307.03 323.065 -377.302 269.884 -444.386 218.228C-475.767 194.03 -512.544 159.102 -511.766 118.693C-510.966 77.8731 -472.737 65.8902 -440.831 59.6831C-346.637 41.3458 -257.398 8.05878 -168.316 -25.1441L407.957 -240.247C467.867 -203.173 512.47 -118.63 511.334 -44.3546L491.526 -55.7589Z" fill="black"/>
</g>
<g opacity="0.1">
<path d="M1167.17 -166.098C1164.77 -84.4274 1127.8 -17.6851 1077.75 24.9863C1027.7 67.6576 965.273 88.7513 901.891 103.333C838.51 117.914 773.119 126.478 711.725 146.751C643.883 169.107 578.272 205.866 502.498 192.389C436.297 180.606 371.989 131.938 310.586 84.6588C281.867 62.5657 248.203 30.5411 248.919 -6.43858C249.645 -43.797 284.633 -54.77 313.836 -60.4511C400.046 -77.2313 481.732 -107.699 563.155 -138.082L1090.68 -334.964C1145.51 -301.024 1186.34 -223.656 1185.29 -155.673L1167.17 -166.098Z" fill="black"/>
</g>
<g opacity="0.18">
<path d="M850.155 -112.507C987.964 -156.914 1130.76 -159.386 1271.2 -161.48C1314.77 -162.122 1360.11 -162.385 1397.57 -142.638C1438.01 -121.323 1463.85 -79.2197 1480.51 -34.9176C1497.17 9.38439 1506.08 57.1056 1521.95 101.776C1569.77 236.439 1678.54 338.814 1709.96 480.105C1713.94 497.99 1715.92 519.231 1704.04 534.549C1692.98 548.847 1673.12 552.518 1657.34 547.973C1641.56 543.428 1628.85 532.371 1616.53 521.672C1459.28 384.687 1290.38 261.671 1111.76 154.021C1015.5 96.0001 911.012 36.5695 865.124 -69.8248L850.155 -112.507Z" fill="#7AABA8"/>
</g>
</g>
<path d="M186.502 941.177L191.132 908.595L217.034 928.896L186.502 941.177Z" stroke="white" stroke-opacity="0.5" stroke-width="5"/>
<path d="M1233.5 950.177L1238.13 917.595L1264.03 937.896L1233.5 950.177Z" stroke="white" stroke-opacity="0.5" stroke-width="5"/>
<path d="M1360.76 766.969L1370.44 746.471L1383.35 765.104L1360.76 766.969Z" stroke="white" stroke-opacity="0.5" stroke-width="5"/>
<path d="M621.878 938.5L633.268 858.346L696.988 908.287L621.878 938.5Z" stroke="white" stroke-opacity="0.5" stroke-width="3"/>
<path d="M930.173 947.324L951.761 922.486L962.478 953.601L930.173 947.324Z" stroke="white" stroke-opacity="0.5" stroke-width="5"/>
<circle cx="96.5" cy="886.5" r="47" stroke="white" stroke-opacity="0.5"/>
<circle cx="1348.5" cy="867.5" r="17" stroke="white" stroke-opacity="0.5" stroke-width="3"/>
<line x1="77.5" y1="749" x2="77.5" y2="783" stroke="white" stroke-opacity="0.5" stroke-width="7"/>
<line x1="97" y1="765.5" x2="59" y2="765.5" stroke="white" stroke-opacity="0.5" stroke-width="7"/>
<line x1="1275.5" y1="805" x2="1275.5" y2="839" stroke="white" stroke-opacity="0.5" stroke-width="7"/>
<line x1="1295" y1="821.5" x2="1257" y2="821.5" stroke="white" stroke-opacity="0.5" stroke-width="7"/>
<line x1="894.5" y1="606" x2="894.5" y2="626" stroke="white" stroke-opacity="0.5" stroke-width="3"/>
<line x1="906" y1="615.5" x2="883" y2="615.5" stroke="white" stroke-opacity="0.5" stroke-width="3"/>
<line x1="152.413" y1="750.459" x2="140.132" y2="746.196" stroke="white" stroke-opacity="0.5"/>
<line x1="144.14" y1="754.468" x2="148.076" y2="743.132" stroke="white" stroke-opacity="0.5"/>
<line x1="242.413" y1="605.459" x2="230.132" y2="601.196" stroke="white" stroke-opacity="0.5"/>
<line x1="234.14" y1="609.468" x2="238.076" y2="598.132" stroke="white" stroke-opacity="0.5"/>
<line x1="509.413" y1="978.459" x2="497.132" y2="974.196" stroke="white" stroke-opacity="0.5"/>
<line x1="501.14" y1="982.468" x2="505.076" y2="971.132" stroke="white" stroke-opacity="0.5"/>
<line x1="871.413" y1="577.459" x2="859.132" y2="573.196" stroke="white" stroke-opacity="0.5"/>
<line x1="863.14" y1="581.468" x2="867.076" y2="570.132" stroke="white" stroke-opacity="0.5"/>
<line x1="467.413" y1="527.459" x2="455.132" y2="523.196" stroke="white" stroke-opacity="0.5"/>
<line x1="459.14" y1="531.468" x2="463.076" y2="520.132" stroke="white" stroke-opacity="0.5"/>
<line x1="1026.41" y1="566.459" x2="1014.13" y2="562.196" stroke="white" stroke-opacity="0.5"/>
<line x1="1018.14" y1="570.468" x2="1022.08" y2="559.132" stroke="white" stroke-opacity="0.5"/>
<line x1="1309.41" y1="736.459" x2="1297.13" y2="732.196" stroke="white" stroke-opacity="0.5"/>
<line x1="1301.14" y1="740.468" x2="1305.08" y2="729.132" stroke="white" stroke-opacity="0.5"/>
<circle cx="149.5" cy="843.5" r="3.5" fill="#D9D9D9" fill-opacity="0.5"/>
<circle cx="271.5" cy="969.5" r="3.5" fill="#D9D9D9" fill-opacity="0.5"/>
<circle cx="409.5" cy="972.5" r="3.5" fill="#D9D9D9" fill-opacity="0.5"/>
<circle cx="634.5" cy="793.5" r="3.5" fill="#D9D9D9" fill-opacity="0.5"/>
<circle cx="774.5" cy="953.5" r="3.5" fill="#D9D9D9" fill-opacity="0.5"/>
<circle cx="935" cy="869" r="2" fill="#D9D9D9" fill-opacity="0.5"/>
<circle cx="1082" cy="959" r="2" fill="#D9D9D9" fill-opacity="0.5"/>
<circle cx="1174" cy="917" r="2" fill="#D9D9D9" fill-opacity="0.5"/>
<circle cx="1212" cy="978" r="2" fill="#D9D9D9" fill-opacity="0.5"/>
<circle cx="1339" cy="943" r="2" fill="#D9D9D9" fill-opacity="0.5"/>
<circle cx="1389" cy="964" r="2" fill="#D9D9D9" fill-opacity="0.5"/>
<circle cx="421" cy="884" r="2" fill="#D9D9D9" fill-opacity="0.5"/>
<circle cx="99" cy="646" r="2" fill="#D9D9D9" fill-opacity="0.5"/>
<circle cx="51" cy="689" r="2" fill="#D9D9D9" fill-opacity="0.5"/>
<circle cx="200" cy="650" r="2" fill="#D9D9D9" fill-opacity="0.5"/>
<circle cx="1416" cy="835" r="2" fill="#D9D9D9" fill-opacity="0.5"/>
<defs>
<clipPath id="clip0_1_195">
<rect width="1437" height="384" fill="white"/>
</clipPath>
</defs>
</svg>
